<svg xmlns="http://www.w3.org/2000/svg" width="21" height="21.75" viewBox="0 0 21 21.75">
  <g id="Group_334" data-name="Group 334" transform="translate(0 -330.587)">
    <rect id="Rectangle_415" data-name="Rectangle 415" width="20" height="21" transform="translate(1 330.649)" fill="#023016"/>
    <path id="Path_37722" data-name="Path 37722" d="M16.43,206.889c-.186,0-.087.151-.127.239-.222.044-.1-.113-.178-.192-.139.041-.245.182-.348.176-.008-.025-.028-.035,0-.067-.147.122-.435.006-.606.16a.092.092,0,0,1-.022-.038.5.5,0,0,1,.026.211c-.083,0-.155.1-.186,0,.051,0,.055-.038.079-.069l-.087.044c-.079-.145.119-.05.119-.157-.17.047-.369.167-.5.126-.027-.141.305-.048.131-.173l.2.054c-.154-.223.123.015-.019-.223-.266-.041-.3.072-.562.031-.06.079.02.116-.04.2-.377.141-.3-.356-.574-.168-.072.095-.1.273-.3.179l.067-.16c-.257-.016-.147.23-.416.122.048-.063.2-.053.163-.072-.175-.126-.123.091-.258.091l-.028-.142c-.274.022-.576.125-.879.151.017-.043.069-.087,0-.13a3.065,3.065,0,0,1-1.186-.1l-.141.122c-.033,0-.061-.055-.025-.079-.144-.046-.007.077-.077.125-.082.009-.108-.07-.056-.107a1.449,1.449,0,0,1-.991.092l.052-.036c-.208-.05-.235.251-.428.137l.037-.022a4,4,0,0,1-1.3-.126c-.066.176-.447-.078-.476.168-.258-.122-.184-.166-.548-.248-.1-.011-.145.153-.265.179l0-.128-.163.135-.087-.153-.113.033c.045.008.1.057.089.095A.424.424,0,0,1,5.974,207l-.416.109c.009-.052.079-.069.134-.1-.222.131-.04-.135-.244-.015.027.029-.015.077-.019.1a.749.749,0,0,0-.5-.045l.033-.089c-.309-.022-.651.043-1,.041a.107.107,0,0,1-.006.21l-.041-.136c-.066.084.106.051-.029.154-.129-.016-.087-.155-.013-.2l-.157.047c-.009-.04.028-.062.037-.113-.065.084-.272-.136-.365.01l-.009-.04c-.346,0-.5.045-.785.053-.006.117-.116.091-.2.186a3,3,0,0,0-.687-.12c-.176.058-.051.1-.13.169-.013-.107-.262-.1-.133-.173a3.428,3.428,0,0,0-.762.108c.041.044.087.063.063.1-.069.017-.157-.045-.147-.1l.018-.011a.592.592,0,0,1-.24.033l-.126-.015a.171.171,0,0,1-.052-.028l.006-.241c0-.195,0-.389.006-.581,0-.408.007-.809.01-1.2.005-.772,0-1.485-.008-2.077l0,.1-.021-1.916c0-.881.015.529.027-.123-.033-2.067,0-3.266-.017-4.968.058-1.318,0-4.675.033-6.454l-.014.1c-.013-.46.008-.556.011-.895-.011.048-.012.5-.02.213,0-.519,0-1.043,0-1.577l.367.023.459.055.916.12c.268.02.152-.383.489-.206l-.1.137c.54-.165,1.1.006,1.634-.135-.031.032-.032.073-.084.073.112.1.413,0,.415-.077.082.01.019.074.07.115.112.059.281-.128.341-.028.01.016-.031.033-.052.04.073-.048.34.012.27-.1.2.055.38-.052.538.017.1-.129.34.062.373-.12-.014.189.348.152.474.064-.042.057.109.059.06.138.143,0,.274-.038.249-.135.264.225.53-.182.679.108a10.113,10.113,0,0,1,1.2-.214c-.014.188-.423.018-.407.216a2.547,2.547,0,0,1,.933-.193c.093.025-.053.082-.084.113.363-.077.7.017,1.024-.085,0,.018-.036.037-.069.051.064-.006.148.028.141-.058l-.062.023c-.1-.124.253-.259.264-.325-.108.245.319.062.147.371.042-.016.094-.057.085-.113.062.016.082.05.019.115.228-.046.147-.137.353-.135,0,.042-.042.057-.064.106a.436.436,0,0,1,.384-.126c-.011.025.01.057-.042.057.3-.013.511-.215.839-.137-.1.18.112.059.129.215l.177-.047-.071-.075c.155,0,.292-.11.425-.06l-.115.064.29-.03-.164-.059c.157-.08-.017-.2.189-.153-.042.016.155,0,.236.093h0a.29.29,0,0,1,.27-.063c.03.05-.024.172,0,.2.076-.13.363-.036.458-.175a.156.156,0,0,0-.023.131l.063-.105c.072.034.082.05.071.115.216.02-.068-.2.188-.112-.02.008-.01.025-.052.04.257.044.5-.067.733-.015.07.156-.206.038-.127.17a5.79,5.79,0,0,1,1.035-.151l-.062-.017c.046-.221.246.11.412.005-.041.016-.053.123-.042.1a2.553,2.553,0,0,0,.8-.124l-.042.057a3.223,3.223,0,0,0,.494.055c.043-.057.125-.047.075-.13.443.323.845-.173,1.239.1-.047,0-.112.05-.075.05l.335-.052c-.027-.1-.044-.058-.114-.133a.3.3,0,0,1,.22-.1c-.151.064,0,.155.066.208-.011-.029.011-.062.006-.092.175.172.029-.193.268-.078l-.013.05c.089-.026.172-.093.268-.078.04.111-.1.052-.1.144.135-.007.267-.211.39-.1-.058.031-.14.032-.2.062a.3.3,0,0,0,.248.118l-.01,0,.229.059-.058-.035a.264.264,0,0,1,.217-.157l.117,0a.314.314,0,0,0,.109-.019c0,.156.006.321.012.522-.008-.282-.014-.387-.017-.434s-.006-.022-.008.02a1.433,1.433,0,0,1-.017.254c-.006.135-.014.672-.02.527.019.588-.015.983.013,1.813a4.308,4.308,0,0,1-.019.5c.006.765.013-.181.022-.116.025,1.179-.031,2.772,0,4.468.014,1.463.04,1.733.052,3.091-.012.458-.027-.375-.027-.375-.011.739-.009,1.3,0,1.992-.006-.141-.012,0-.02.216,0,.559.027.374.016,1.111-.008-.127-.022-.289-.03-.558.007.659.021,1.309.028,1.991a4.791,4.791,0,0,1-.028-.652c.006.766.012,1.986.032,2.222l.007-.491c0,.279-.018.144-.021-.062a7.666,7.666,0,0,1,.015-.984l0,.485c.044-.5-.007-1.95,0-2.928l.032.408-.026-1c.008-.213.026-.359.031.124.016-.7-.011-.62.006-1.223,0-.066,0-.036.006.025l-.009-.685c.007.134.022-.114.018.307.018-1.229-.024-1.982,0-2.444l0,.1c-.011-1.705-.023-.165-.051-1.444l.058-.86L20.5,192.9a4.058,4.058,0,0,1,.012-.459c-.016-.655-.01.111-.025-.268.021-.847-.01-2.335.027-2.526-.018-.3-.014.81-.026-.094.04-.258-.007-1.045.012-1.818.021.237.01.97.028.2,0-.051-.007-.11-.009-.174s0-.166,0-.254c0-.184,0-.389,0-.619l-.154-.052a.174.174,0,0,0-.113-.017c-.006.151-.26.063-.461.114.013-.051-.378-.083-.565-.138l.006-.025c-.036.153-.229.124-.369.156a.17.17,0,0,1,.107-.169h-.132a.211.211,0,0,1-.158.092l.033-.115c-.176.007-.353.135-.579.058-.013.107.18.3-.059.368-.009-.058-.018-.156.045-.18-.02.008-.073.048-.114.023l.1-.1c-.1-.043-.054.081-.136.072,0-.082-.061-.059-.049-.124.021-.008.072.034.1,0a.378.378,0,0,1-.242-.126c.008.047,0,.111-.068.121-.176.006-.06-.1-.162-.141-.043.057-.154,0-.157.121-.051,0-.061-.058-.081-.091-.091.054-.424.015-.322.146l.023.008-.015.005h0c-.3.123-.618-.07-.914-.017v-.041c-.176.047-.392.028-.518.116-.052,0-.123-.075-.1-.124-.135.031-.15.077-.345.009.135-.072-.047-.064.139-.052-.175-.035-.215-.1-.4.011.064-.105-.132-.133-.215-.1l.123.075a.907.907,0,0,1-.259,0l.045-.138c-.358-.169-.646.287-.919,0-.095.1.195.068.11.182-.165-.019-.337-.218-.388-.218-.226-.077-.211.2-.447.15.03.049.059.181-.118.228-.165-.018-.2-.208-.1-.247.04,0,.059.011.057.028.053-.017.123-.039.058-.092l-.021.049c-.082-.05-.309-.045-.256-.126-.125.047-.053.081.039.107-.212-.072-.331,0-.548-.05.035.027.067.085.032.085-.319-.061-.141.094-.357.115-.123-.075.044-.18-.174-.117-.133-.051-.028-.131.025-.171-.2.1-.371-.063-.484-.08l.1-.04a.417.417,0,0,1-.166.023l.06.1c-.061-.017-.113-.017-.112-.059-.063.065.048.164-.077.253-.082-.05-.249.054-.278-.077.257.045-.028-.132.189-.153a.249.249,0,0,1-.155,0c-.009-.015.009-.027.026-.035-.246-.117-.113.149-.369.145.032-.074-.059-.14-.1-.125.1,0,.049.124-.045.18-.164-.058-.178.042-.264.036l.1.027c-.033.074-.115.065-.229.088-.01-.058.1-.04.063-.065-.127.13-.286-.135-.463-.047-.082-.05-.008-.139-.08-.173-.2.1-.214-.1-.423-.022.06.1.07.075-.076.172l.342-.07-.22.145c.1,0,.218-.062.28-.045-.1.081-.094.056-.044.139-.141-.149-.28.087-.443-.014l.005-.246c-.246-.11-.436.126-.755.064l.1.043c-.043.1-.2.013-.3.053.01-.083-.055-.113-.1-.164.005.061-.233-.005-.262.159l-.142-.108c-.257-.044-.294.235-.541.207.075-.09-.038-.148.128-.212-.083,0-.157-.016-.158.041-.048-.051-.229.111-.305.033-.035.036-.046.122-.139.115a.05.05,0,0,1,0-.04c0,.04-.145.055-.064.146-.255-.257-.711.019-.933-.2a5.366,5.366,0,0,1-.561.06c.01-.025,0-.041.031-.033-.226-.077-.139.236-.4.15-.131-.133.136-.072.055-.122-.036-.271-.31.037-.483-.121l.042-.016c-.132-.092-.322.1-.538.083a.054.054,0,0,0,0-.041,1.347,1.347,0,0,1-.635.222c.065-.106.094-.056.055-.164-.093.015.027.173-.159.2-.06-.058-.195-.109-.212-.223l.175-.006c-.09-.149-.227,0-.319-.021l.012-.065c-.269.021-.272.185-.561.173l.03.05c-.158.162-.132-.091-.29.029l-.048-.165a3.2,3.2,0,0,1-.552.19,1.6,1.6,0,0,1,.46-.257c-.1,0-.351.012-.4.093.042-.016.094-.056.135-.031a.656.656,0,0,1-.5.19.142.142,0,0,0-.124-.171.839.839,0,0,0-.141-.02l-.218-.012c0,.223,0,.443,0,.653q0,.161,0,.313,0,.108,0,.209c0,.25-.009.46-.017.6.022,1.984-.009,3.937-.006,6.249.045-.82,0,.675.048.533,0,.539,0,.744,0,.792L.053,197.7c-.014.387-.01-.512-.021-.463,0,1.179-.02.5-.032,1.275A7.126,7.126,0,0,1,.018,199.6l.022-.946C.064,200.3,0,200.076.025,201.737l-.015-.525c.009.853,0,3.144.037,3.98-.005.151-.018.35-.022-.025,0,.378,0,.772,0,1.173,0,.562,0,1.133.007,1.7l.163-.021L.311,208l.18-.031A.609.609,0,0,1,.807,208l-.028.062c.07-.018.121-.117.209-.054,0,.025-.028.062,0,.066.037-.022.185-.109.277-.073l-.079.07c.364.082.559-.171.865-.213,0,.183.286.243.429.273l0,.026a4.365,4.365,0,0,0,1.113-.224c.244.2.826.083,1.218.2-.06-.033.01-.143.079-.161.092.037.254-.128.24.041L5.1,208c.069.165.258.121.406.126l.024-.22c.386.32,1.011-.118,1.222.169.093-.055.209-.055.3-.11l0,.118a2.78,2.78,0,0,0,.706.017l-.065.084c.18.008.227-.34.393-.347l.05.176c.314,0,.632.152.942-.008-.005.026-.014.077-.065.084.148,0,.572.119.518-.123,0,.158.324.015.494-.054l-.026.116c.143-.148.148-.189.348-.23.047.015.041.093-.021.063.158.061.123-.11.314-.048l-.071.074c.162.009.149-.031.239-.117a.283.283,0,0,1,.332.134.182.182,0,0,1,.206-.119c.013.04-.022.064-.039.076.272.079.4-.135.59-.021a.091.091,0,0,0,.032.069,2.153,2.153,0,0,1-.373-.018c0,.107.174.126.036.274.14-.08.379-.256.549-.205a.12.12,0,0,1,.022.037l-.018.012a.14.14,0,0,0,.107-.017.466.466,0,0,0,.141.032c.02.089.2.048.287.052-.007-.117.107-.1,0-.2.014.008-.016.014-.074.019a.122.122,0,0,0-.037.012l.006-.01-.216.008c.069-.059.14-.109.236-.044.045-.075.094-.153.121-.189.119.163.348.252.38.353.265-.066.625-.043.792-.263.075-.028.087.063.115.1-.044.022-.1.019-.119.05.151-.057.447-.022.483-.176.19.07-.107.142.154.117l-.035.047c.514.246.835-.392,1.4-.077-.04-.019-.059-.028-.067-.054.649.139,1.338-.13,1.979.09.182.045.2-.054.313-.128l.039.126.19-.145c.269-.106.467.309.808.108l-.044-.085c.123.016.388-.05.368.048.013-.015.04-.088.088-.044l0,.066.3-.113c.233.048-.037.261.3.274.127-.025.36-.192.313-.235-.051,0-.131-.041-.134-.107l.116-.034c.021-.194.11-.393-.174-.528l-.2.119-.064-.094.167-.006c-.095-.089-.155-.01-.222.043a.162.162,0,0,0-.083-.1l-.194.185c-.024-.076.087-.15-.043-.193-.091.086.087.17-.063.227-.095-.088-.067-.16-.178-.085a.08.08,0,0,1,.052-.1c-.1.06-.262.025-.313.128-.1-.109-.334.028-.325-.155a.517.517,0,0,1-.265.152c.166-.22-.34-.013-.3-.249-.123.2-.444.088-.662.2.012-.016.036-.047.055-.038-.123-.016-.158-.076-.237-.113-.016.163-.207.2-.309.3-.15-.158.091-.192.044-.343.008.133-.261.132-.21.242-.115-.1-.1-.047-.158-.183-.02.2-.107.035-.2.16-.166-.1-.043-.191-.225-.129-.087-.062.076-.135.076-.135m-4.344.353v0l.09-.007-.09.009m-.365,0,.158,0c.013.04,0,.082-.038.08.02-.027-.066-.05-.121-.085m.772.812c-.058.017-.077-.006-.085-.03l.1-.014.007-.014a.171.171,0,0,1-.023.059" transform="translate(0 144.151)" fill="#fff"/>
  </g>
</svg>
