<svg id="Group_335" data-name="Group 335" xmlns="http://www.w3.org/2000/svg" width="268.641" height="52.197" viewBox="0 0 268.641 52.197">
  <g id="Group_354" data-name="Group 354">
    <rect id="Rectangle_411" data-name="Rectangle 411" width="267" height="49" transform="translate(1 0.649)" fill="#023016"/>
    <path id="Path_12869" data-name="Path 12869" d="M215.028,49.085c-2.434-.007-1.144.362-1.66.574-2.9.1-1.344-.272-2.333-.461-1.814.1-3.205.437-4.558.423-.1-.061-.364-.083-.055-.16-1.918.294-5.694.015-7.928.384a.886.886,0,0,1-.292-.092c.362.185.417.373.344.507-1.092.006-2.025.233-2.436-.008a2.537,2.537,0,0,0,1.037-.166L196,50.191c-1.029-.347,1.561-.12,1.561-.377-2.23.113-4.828.4-6.537.3-.356-.339,4-.114,1.716-.416l2.643.13c-2.02-.536,1.606.037-.25-.536-3.478-.1-3.891.173-7.361.074-.781.189.259.279-.523.468-4.932.339-3.882-.854-7.508-.4a7.461,7.461,0,0,1-3.885.429l.88-.384c-3.367-.038-1.922.552-5.449.294.627-.151,2.647-.128,2.137-.173-2.285-.3-1.616.218-3.373.218l-.364-.34c-3.585.053-7.535.3-11.507.361.22-.1.9-.208-.029-.312-5.008.17-10.692-.041-15.523-.243l-1.846.294c-.429,0-.8-.133-.331-.19-1.883-.111-.1.186-1,.3-1.071.021-1.415-.168-.736-.256a98.956,98.956,0,0,1-12.965.221l.682-.087c-2.726-.119-3.076.6-5.6.328l.485-.052c-5.917-.127-12.455.142-16.969-.3-.859.423-5.856-.188-6.236.4-3.379-.292-2.411-.4-7.169-.594-1.27-.027-1.894.368-3.465.429l-.038-.308-2.133.323-1.135-.368-1.474.079c.587.018,1.248.138,1.159.227a22.269,22.269,0,0,1-5.668-.372l-5.445.26a7.7,7.7,0,0,1,1.753-.245c-2.906.314-.528-.325-3.191-.037.357.07-.193.184-.254.246a51.161,51.161,0,0,0-6.586-.109l.429-.213c-4.039-.054-8.514.1-13.048.1,1.626.1,1.253.467-.077.5l-.531-.326c-.858.2,1.388.123-.374.37-1.693-.038-1.138-.371-.166-.477l-2.059.113c-.12-.1.363-.148.488-.272-.845.2-3.554-.327-4.772.024l-.116-.1c-4.531,0-6.586.11-10.278.126-.072.281-1.516.218-2.616.446-2.712-.09-5.723-.311-8.991-.287-2.3.14-.671.238-1.7.405-.169-.256-3.434-.232-1.74-.416-3.923.042-5.01.051-9.972.259.539.1,1.144.151.831.238-.9.042-2.049-.107-1.92-.23l.238-.027c-1,.069-2.06.089-3.146.079L3.29,49.754c-.3-.019-.473-.042-.676-.069l.077-.578c.027-.467.054-.933.08-1.394.047-.979.092-1.942.136-2.868A33.56,33.56,0,0,0,2.8,39.861l.027.249-.278-4.6c.044-2.115.192,1.269.351-.3-.428-4.961.062-7.838-.223-11.923.756-3.162-.053-11.22.429-15.489l-.178.247A6.585,6.585,0,0,1,3.072,5.9c-.138.115-.16,1.2-.257.511C2.8,5.17,2.779,3.911,2.76,2.629l4.8.054,6.006.132L25.558,3.1c3.5.048,1.989-.92,6.406-.5l-1.253.33c7.07-.4,14.459.014,21.38-.323a3.415,3.415,0,0,1-1.1.175,19.684,19.684,0,0,0,5.432-.184c1.078.022.25.177.914.276,1.467.142,3.681-.306,4.46-.067.133.038-.412.077-.68.1.956-.116,4.453.03,3.538-.247,2.6.132,4.97-.123,7.042.04,1.351-.309,4.448.149,4.877-.288-.186.452,4.554.364,6.2.152-.551.136,1.428.141.784.331,1.874-.007,3.592-.091,3.265-.323,3.454.541,6.942-.436,8.887.258,5.569-.243,10.722-.408,15.732-.513-.181.45-5.538.044-5.323.518,4.753-.186,7.493-.573,12.206-.464,1.221.062-.693.2-1.1.273,4.748-.186,9.18.04,13.4-.2a3.784,3.784,0,0,1-.9.122c.833-.014,1.937.067,1.843-.139l-.812.056c-1.329-.3,3.306-.622,3.456-.779-1.414.588,4.172.148,1.927.89.549-.038,1.236-.135,1.11-.272.813.039,1.071.12.247.276,2.982-.112,1.922-.33,4.624-.326-.01.1-.554.138-.834.255a25.092,25.092,0,0,1,5.026-.3c-.138.06.128.137-.554.136,3.922-.03,6.684-.516,10.986-.329-1.269.432,1.463.142,1.691.516l2.314-.112-.929-.181c2.027.007,3.817-.265,5.56-.143l-1.506.154,3.8-.071-2.149-.142c2.05-.192-.22-.472,2.477-.368-.548.038,2.027,0,3.083.225h-.007a17.811,17.811,0,0,1,3.533-.152c.389.12-.313.413-.06.492.989-.312,4.745-.086,6-.419-.418.079-.44.274-.3.315l.83-.254c.938.081,1.076.12.923.276,2.824.047-.9-.473,2.454-.269a6.2,6.2,0,0,1-.685.1c3.366.106,6.5-.161,9.6-.036.913.375-2.7.092-1.657.409,4.459-.068,9.234-.451,13.549-.362l-.8-.042c.6-.53,3.214.263,5.4.013-.534.039-.7.294-.556.235,2.955.085,6.042-.131,10.519-.3l-.554.136c1.741.121,4.586.07,6.467.132.558-.136,1.635-.114.981-.312,5.8.776,11.064-.416,16.21.23-.615,0-1.466.12-.977.12l4.384-.125c-.347-.232-.575-.14-1.5-.32a15.109,15.109,0,0,1,2.879-.243c-1.971.153.017.371.868.5-.142-.071.149-.149.078-.221,2.289.411.383-.465,3.509-.188l-.165.121c1.17-.062,2.248-.222,3.51-.188.524.268-1.245.125-1.326.345,1.772-.016,3.5-.507,5.1-.24-.753.074-1.836.076-2.588.15a15.74,15.74,0,0,0,3.247.284l-.128-.008,3,.143-.764-.086a9.886,9.886,0,0,1,2.839-.377l1.534,0c.452,0,.892-.01,1.421-.045.029.374.077.77.156,1.252a5.32,5.32,0,0,0-.226-1.041c-.049-.1-.076-.053-.1.049-.046.21-.077.614-.228.61-.084.323-.179,1.612-.264,1.265.245,1.412-.193,2.358.165,4.35-.1.09-.009,1.511-.254,1.192.076,1.837.169-.433.292-.279.333,2.83-.4,6.652.053,10.722.188,3.51.517,4.159.68,7.417-.155,1.1-.355-.9-.355-.9a29.907,29.907,0,0,0-.005,4.779c-.085-.339-.157.01-.267.52.026,1.341.355.9.211,2.665a6.55,6.55,0,0,1-.391-1.34c.09,1.581.272,3.142.36,4.778-.17.434-.258-.987-.369-1.564a31.624,31.624,0,0,0,.423,5.333l.1-1.18c.013.67-.231.345-.28-.15a3.567,3.567,0,0,1,.191-2.362L267.789,39c.572-1.2-.092-4.68-.058-7.026l.416.978-.346-2.406c.109-.511.341-.862.4.3.206-1.682-.148-1.489.082-2.934.035-.159.055-.087.072.061l-.124-1.643c.087.322.293-.274.233.736.241-2.949-.312-4.756,0-5.866l.025.246c-.14-4.092-.3-.4-.663-3.465l.753-2.065-.306-.4c.012-.422.035-1.257.157-1.1-.209-1.571-.133.268-.33-.644.277-2.032-.131-5.6.356-6.061-.232-.729-.179,1.943-.341-.226.524-.618-.089-2.507.151-4.363.27.569.127,2.328.368.471a2.091,2.091,0,0,1-.117-.419,5.888,5.888,0,0,1-.056-.61c-.019-.44-.007-.933.018-1.486L266.467.944A11.918,11.918,0,0,0,264.987.9c-.073.363-3.4.152-6.031.273.166-.123-4.944-.2-7.388-.332l.072-.06c-.473.367-2.994.3-4.83.373.072-.219.4-.306,1.4-.4h-1.726a8.9,8.9,0,0,1-2.065.222L244.85.7c-2.3.015-4.625.323-7.58.139-.167.257,2.35.714-.775.884-.116-.138-.231-.375.586-.432a8.224,8.224,0,0,1-1.494.056l1.248-.233c-1.346-.1-.7.195-1.78.173.021-.2-.8-.14-.642-.3a10.368,10.368,0,0,0,1.351,0,17.952,17.952,0,0,1-3.165-.3c.106.112,0,.266-.888.291-2.3.015-.787-.237-2.126-.339-.557.138-2.022-.005-2.06.291a2.3,2.3,0,0,1-1.057-.219c-1.188.13-5.552.037-4.212.351l.305.02-.2.013h0c-3.9.294-8.093-.167-11.959-.04l.006-.1c-2.308.113-5.136.066-6.784.279-.683,0-1.611-.18-1.319-.3a27.724,27.724,0,0,1-4.51.022c1.773-.172-.612-.153,1.817-.126a26.285,26.285,0,0,0-5.272.026c.838-.252-1.725-.318-2.815-.242l1.606.181c-1.225.036-2.3.014-3.384-.008l.588-.332c-4.69-.405-8.459.688-12.03.011-1.241.233,2.548.164,1.438.436-2.157-.045-4.406-.522-5.081-.523-2.955-.185-2.758.486-5.85.36.4.118.769.435-1.542.547-2.16-.044-2.655-.5-1.291-.593.517-.01.767.027.745.068.7-.043,1.613-.094.758-.223l-.28.119c-1.071-.121-4.042-.109-3.344-.3-1.631.113-.7.194.511.256C161.6.448,160.047.615,157.2.5c.453.065.871.2.419.2-4.18-.147-1.84.225-4.674.277C151.333.8,153.519.548,150.668.7c-1.742-.122-.369-.314.323-.411a43.3,43.3,0,0,1-6.339-.193L146.021,0c-.819.057-1.489.055-2.171.055l.781.237c-.8-.042-1.484-.042-1.469-.141-.828.155.634.4-1.009.607-1.071-.121-3.262.129-3.632-.185C141.89.68,138.149.256,141,.2a17.334,17.334,0,0,1-2.027,0c-.121-.035.114-.065.334-.084-3.224-.281-1.482.357-4.823.349.424-.177-.775-.336-1.32-.3,1.346,0,.644.3-.591.432a25.662,25.662,0,0,0-3.451.086L130.4.75a14.307,14.307,0,0,1-3,.21c-.128-.138,1.356-.095.824-.155-1.659.311-3.747-.323-6.059-.113-1.072-.12-.1-.334-1.045-.415-2.591.23-2.807-.243-5.53-.053.785.238.922.18-1,.412l4.478-.167L116.2.816c1.351,0,2.852-.15,3.661-.11-1.369.2-1.228.135-.581.333-1.849-.357-3.666.209-5.8-.033l.066-.59c-3.214-.264-5.71.3-9.883.154l1.341.1c-.56.234-2.576.032-3.928.128.126-.2-.718-.27-1.3-.392.071.146-3.054-.014-3.433.38L94.483.529c-3.37-.106-3.846.563-7.085.5C88.374.81,86.9.67,89.071.517a6.543,6.543,0,0,0-2.07.1c-.632-.123-3,.266-3.994.079a4.8,4.8,0,0,1-1.818.277c-.133-.04,0-.1,0-.1,0,.1-1.9.132-.839.351C77.023.609,71.043,1.27,68.143.74c-2.36.067-5.2.13-7.346.145.137-.059.007-.1.412-.078-2.955-.184-1.817.567-5.18.361C54.311.849,57.815,1,56.744.875c-.467-.65-4.059.089-6.322-.291l.547-.038c-1.729-.22-4.22.246-7.047.2,0,0,.138-.058.017-.1a79.718,79.718,0,0,1-8.311.533c.846-.254,1.235-.135.718-.393-1.218.036.358.415-2.075.487-.791-.139-2.546-.261-2.779-.536L33.787.724c-1.176-.357-2.971.012-4.18-.05l.154-.156c-3.517.051-3.566.444-7.345.415l.39.119c-2.065.389-1.732-.219-3.792.07L18.39.727c-1.363.1-4.774.382-7.218.456C12.557.89,15.417.74,17.187.567a41.3,41.3,0,0,0-5.3.224A10.606,10.606,0,0,1,13.659.717a36.362,36.362,0,0,1-6.53.456C7.285.922,6.588.815,5.512.763,4.974.738,4.341.726,3.672.717L.818.687C.808,1.223.8,1.75.788,2.253.779,2.51.772,2.76.764,3c-.01.173-.021.34-.03.5A7.329,7.329,0,0,1,.517,4.947C.8,9.709.4,14.4.442,19.944c.595-1.968.016,1.62.627,1.279a10.984,10.984,0,0,1-.01,1.9L.694,27.041c-.178.928-.135-1.229-.272-1.111C.375,28.76.163,27.118,0,28.99c.219-.384.314.984.23,2.6l.282-2.271C.838,33.27,0,32.734.321,36.72L.129,35.459c.113,2.046,0,7.546.487,9.551-.07.362-.238.84-.282-.061-.014.908,0,1.853.018,2.816.032,1.348.065,2.72.1,4.086l2.139-.05,1.486-.048,2.361-.075c1.526-.034,2.937-.027,4.132.068L10.2,51.9a12.148,12.148,0,0,1,2.729-.13c-.059.061-.367.149.055.158a24.823,24.823,0,0,1,3.631-.175l-1.033.168c4.769.2,7.318-.41,11.317-.512-.011.44,3.741.583,5.613.654l-.065.063c5.553.054,9.432-.365,14.573-.538,3.192.478,10.812.2,15.941.468-.784-.08.128-.343,1.04-.387,1.2.089,3.327-.305,3.136.1l-.429-.007c.907.4,3.382.29,5.313.3l.319-.528c5.052.768,13.237-.282,16,.406,1.219-.132,2.73-.131,3.938-.263l-.065.283c3.378.073,5.065.108,9.24.041l-.851.2c2.355.018,2.974-.816,5.146-.833l.654.423c4.109-.007,8.268.364,12.328-.019-.066.062-.187.184-.853.2,1.935.011,7.482.286,6.78-.294.048.378,4.239.037,6.459-.13l-.346.279a20.1,20.1,0,0,1,4.549-.552c.62.036.543.223-.281.152,2.066.146,1.61-.264,4.114-.116l-.933.178a10.03,10.03,0,0,0,3.127-.281,14.1,14.1,0,0,1,4.345.322,7.1,7.1,0,0,1,2.7-.286c.169.095-.287.154-.516.183,3.554.19,5.284-.324,7.727-.05.052.092.211.138.413.166-2.823-.007-5.1-.022-4.883-.042,0,.257,2.28.3.466.656a50.8,50.8,0,0,1,7.183-.493,1.418,1.418,0,0,1,.294.089l-.23.028a9.233,9.233,0,0,0,1.4-.041c.709.042,1.159.073,1.841.077a19.684,19.684,0,0,0,3.752.125c-.094-.281,1.394-.236,0-.468.18.02-.215.034-.971.045-.171.009-.372.013-.485.029l.078-.024-2.827.019a10.251,10.251,0,0,1,3.094-.107c.584-.181,1.226-.367,1.588-.454,1.556.392,4.555.6,4.973.846,3.471-.158,8.178-.1,10.362-.632a2.947,2.947,0,0,1,1.5.234c-.57.053-1.248.045-1.556.121,1.973-.136,5.848-.053,6.319-.422,2.487.167-1.4.34,2.02.28l-.462.112c6.725.59,10.933-.941,18.388-.184a3.122,3.122,0,0,1-.88-.13c8.5.334,17.515-.313,25.9.216a15.5,15.5,0,0,0,4.1-.308l.516.3,2.488-.349c3.527-.255,6.108.742,10.575.259l-.576-.2c1.6.038,5.08-.12,4.813.114a2.251,2.251,0,0,1,1.152-.106l.049.158,3.94-.271c3.054.115-.478.628,3.979.658,1.657-.06,4.718-.46,4.1-.565-.669-.008-1.708-.1-1.758-.257l1.515-.082c.275-.466,1.44-.943-2.28-1.268l-2.592.285-.835-.226,2.182-.014a7.923,7.923,0,0,0-2.9.1,2.848,2.848,0,0,0-1.086-.249l-2.545.445c-.308-.182,1.142-.361-.566-.462-1.192.207,1.143.408-.83.544-1.241-.211-.879-.384-2.334-.2-.205-.12.1-.2.681-.249a37.133,37.133,0,0,0-4.1.308c-1.293-.261-4.374.068-4.247-.373a23.5,23.5,0,0,1-3.472.365c2.175-.528-4.454-.031-3.879-.6-1.609.474-5.812.211-8.662.474a2.431,2.431,0,0,1,.724-.09c-1.6-.039-2.07-.182-3.1-.272-.206.392-2.7.481-4.05.723-1.966-.378,1.193-.46.576-.823.1.318-3.416.317-2.747.581a5.864,5.864,0,0,1-2.07-.438c-.264.49-1.4.083-2.647.384-2.176-.241-.561-.459-2.951-.31-1.137-.15.989-.324.989-.324m-56.851.848v-.006l1.174-.016-1.174.022m-4.777,0,2.072.011c.167.1-.014.2-.494.192.26-.065-.866-.121-1.578-.2m10.105,1.948a2.437,2.437,0,0,1-1.113-.073l1.322-.034.09-.034a.778.778,0,0,1-.3.141" fill="#fff"/>
  </g>
</svg>
