<svg xmlns="http://www.w3.org/2000/svg" width="363.238" height="205.107" viewBox="0 0 363.238 205.107">
  <path id="Path_65497" data-name="Path 65497" d="M480.218,1169c-6.42-.009-3.016.407-4.378.646-7.663.118-3.546-.307-6.153-.52-4.785.11-8.453.492-12.022.476-.265-.068-.959-.094-.147-.179-5.057.331-15.014.016-20.906.432a4.727,4.727,0,0,1-.77-.1c.954.208,1.1.42.906.571-2.878.007-5.341.263-6.424-.009a14.993,14.993,0,0,0,2.736-.187l-3.015.118c-2.715-.391,4.116-.135,4.116-.425-5.88.127-12.733.451-17.239.34-.942-.383,10.536-.129,4.523-.469l6.973.146c-5.327-.6,4.235.042-.659-.6-9.174-.111-10.262.2-19.413.083-2.061.212.681.314-1.38.527-13.008.382-10.239-.962-19.8-.452a44.345,44.345,0,0,1-10.243.483l2.322-.433c-8.883-.043-5.07.622-14.374.331,1.653-.17,6.982-.143,5.638-.194-6.027-.342-4.263.245-8.9.245l-.959-.383c-9.457.06-19.874.337-30.349.407.579-.114,2.375-.234-.076-.351-13.209.192-28.2-.047-40.94-.274l-4.868.331c-1.131,0-2.1-.149-.874-.214-4.965-.126-.257.21-2.644.34-2.824.023-3.732-.19-1.941-.29-1.829.059-3.981.119-6.328.175l-1.794.041-.921.019-.465.01-.175.01c-.466.025-1,.047-1.571.067-.029-.15-.059-.3-.088-.454l-.036-.246-.029-.533c-.035-.774-.052-1.542-.044-2.285a20.682,20.682,0,0,1,.365-4.012l.233.761c.317-3.041-1.6-3.431-.874-6.251l.139.54c.338-6.6-.377-13.892.8-18.927-1.127-.957.5-6.532-1.068-6.956.778-3.768,1.059-2.689,1.583-8,.072-1.417-.982-2.113-1.146-3.865l.822-.043-.862-2.379.982-1.266-.211-1.644c-.048.655-.369,1.392-.6,1.292-.372-2.567.572-6.258.992-6.322l-.694-6.073c.33.135.444,1.152.654,1.956-.838-3.242.865-.589.1-3.56-.186.4-.489-.215-.655-.282.5-1.481.5-4.852.292-7.347l.566.478c.144-4.5-.272-9.5-.261-14.554-.264,1.814-1.246,1.4-1.34-.086l.869-.593c-.537-.957-.328,1.549-.984-.416.1-1.889.987-1.27,1.27-.185l-.3-2.3c.258-.135.4.4.726.544-.54-.942.871-3.964-.065-5.323l.258-.129c.007-5.055-.292-7.347-.334-11.465-.75-.081-.584-1.69-1.19-2.917a96.228,96.228,0,0,0,.765-10.03c-.373-2.562-.634-.748-1.079-1.9.682-.189.618-3.83,1.108-1.941a110.916,110.916,0,0,0-.69-11.123c-.28.6-.4,1.276-.634.926-.112-1,.286-2.285.614-2.141l.071.265c-1.023-6.211,1.989-14.336.566-19.283l.071.277-.741-5.129c.117-2.36.513,1.415.935-.331-1.139-5.533.165-8.742-.594-13.3,2.014-3.527-.141-12.516,1.144-17.277l-.474.275c-.465-1.23.27-1.488.38-2.4-.368.129-.426,1.335-.683.571q-.054-1.356-.109-2.728-.018-.735-.037-1.481l12.624.06,15.837.149c10.584.116,21.19.251,31.633.326,9.241.053,5.245-1.037,16.895-.559l-3.307.372c18.648-.446,38.133.015,56.388-.363a20.506,20.506,0,0,1-2.9.2c3.857.27,14.26.013,14.325-.207,2.843.025.659.2,2.41.312,3.869.159,9.709-.345,11.765-.076a10.088,10.088,0,0,1-1.8.109c2.521-.131,11.745.033,9.331-.279,6.853.149,13.107-.139,18.572.046,3.564-.349,11.73.167,12.862-.326-.491.51,12.011.411,16.345.171-1.451.154,3.767.16,2.068.373,4.944-.007,9.476-.1,8.614-.363,9.108.61,18.307-.491,23.436.291,14.686-.274,28.277-.46,41.489-.579-.476.508-14.6.051-14.037.584,12.535-.21,19.763-.646,32.191-.523,3.219.07-1.826.221-2.914.308,12.521-.21,24.21.046,35.351-.23a22.763,22.763,0,0,1-2.369.138c2.2-.016,5.108.075,4.859-.157l-2.141.063c-3.5-.335,8.721-.7,9.114-.878-1.2.214-.485.306.834.363.966.056,2.093.076,2.674.142a.66.66,0,0,1-.362.408,2.014,2.014,0,0,1-.711.046,1.032,1.032,0,0,1-.167.044l.076-.006a.7.7,0,0,0,.713.258.91.91,0,0,1-.1.272c-.041.039-.091.186-.149.207-.119.1-.276-.208-.484-.278a6.574,6.574,0,0,1,.123.784c.044.292.091.53.14.732a7.208,7.208,0,0,0,.286.911,6.045,6.045,0,0,1,.317,2.462c-.265-.011-.368-.619-.678-.931a12.2,12.2,0,0,1,.807,5.606c-.159-.153-.366.143-.362-.617.08,4.374,1.374,7.456.875,12.254-1.15-1.415-.378,1.632-1.373,1.886l.3,2.581.482-1.036c-.016,2.261.709,4.258.382,6.2l-.41-1.68.189,4.236.377-2.4c.513,2.287,1.259-.245.982,2.763-.1-.611-.012,2.261-.6,3.439l0-.008a8.5,8.5,0,0,1,.4,3.94c-.317.434-1.1-.349-1.311-.067.831,1.1.231,5.294,1.116,6.69-.208-.465-.73-.49-.837-.337l.675.926c-.216,1.047-.321,1.2-.737,1.03-.124,3.15,1.262-1,.718,2.737-.055-.293-.156-.153-.258-.764-.284,3.754.429,7.253.1,10.7-1,1.018-.245-3.014-1.09-1.849.183,4.974,1.2,10.3.965,15.112l.111-.9c1.412.667-.7,3.585-.032,6.019-.105-.6-.785-.781-.628-.62-.226,3.3.348,6.74.793,11.734l-.364-.619c-.324,1.942-.187,5.116-.352,7.214.362.623.3,1.823.831,1.094-2.068,6.469,1.108,12.341-.614,18.082,0-.686-.317-1.636-.32-1.09l.336,4.89c.615-.386.372-.641.851-1.668a7.513,7.513,0,0,1,.649,3.211c-.408-2.2-.989.019-1.332.969.188-.159.4.166.589.086-1.1,2.554,1.238.428.5,3.916l-.324-.185a19.342,19.342,0,0,1,.5,3.915c-.711.584-.332-1.39-.918-1.479.041,1.977,1.349,3.9.64,5.69-.2-.84-.2-2.048-.4-2.887a7.754,7.754,0,0,0-.757,3.622l.019-.142-.378,3.347.226-.852c1.857,2.474.338,5.038,1.556,8.37-1.152-3.239-.666-.535-1.473-.783-.224.851-.476,2.144-.7,1.776.651,1.575-.513,2.63.438,4.852-.26.1-.025,1.685-.677,1.329.2,2.048.452-.484.778-.312.887,3.156-1.078,7.42.141,11.96.5,3.915,1.377,4.639,1.813,8.273-.416,1.226-.946-1-.946-1a14.072,14.072,0,0,0-.015,5.331c-.227-.377-.418.011-.711.58.069,1.5.947,1,.563,2.973a5.039,5.039,0,0,1-1.043-1.494c.239,1.763.725,3.5.958,5.329-.453.484-.686-1.1-.982-1.745.2,2.051.41,5.315,1.127,5.948l.256-1.316c.035.748-.615.384-.746-.167-.562-1.758.248-2.536.509-2.635l.166,1.3c1.524-1.335-.245-5.22-.156-7.837l1.108,1.091-.92-2.684c.289-.571.907-.961,1.074.331.548-1.876-.394-1.66.217-3.272.095-.177.148-.1.192.068l-.33-1.833c.233.359.782-.3.622.821.639-3.29-.831-5.3.009-6.543l.068.275c-.374-4.564-.814-.441-1.769-3.865l2.008-2.3-.814-.449c.029-.471.091-1.4.416-1.23-.557-1.752-.353.3-.879-.718.741-2.266-.346-6.249.95-6.76-.618-.813-.477,2.168-.907-.252,1.393-.69-.238-2.8.4-4.868.719.636.338,2.6.98.526-1.216-1.249.266-4.032.033-5.778-.968-.082-.4-3.8-.726-6.728.325.185.531-5.515.882-8.241l.163.081c-.979-.528-.794-3.34-1-5.388.586.081.817.449,1.079,1.558l-.005-1.925a4.641,4.641,0,0,1-.59-2.3l.731.484c-.041-2.562-.862-5.16-.373-8.456-.682-.185-1.9,2.622-2.355-.864.369-.13,1-.258,1.151.654a3.994,3.994,0,0,1-.149-1.667l.621,1.392c.272-1.5-.518-.785-.461-1.985.526.024.376-.888.793-.716.051.306-.217,1.047-.011,1.506a9.053,9.053,0,0,1,.8-3.53c-.3.118-.709,0-.777-.991-.039-2.562.633-.877.9-2.371-.365-.621.013-2.255-.773-2.3,0-.749.37-.888.583-1.178-.348-1.326-.1-6.193-.937-4.7l-.055.34c-.011-.064-.023-.139-.035-.217v0c-.782-4.346.445-9.028.109-13.34l.262.007c-.3-2.574-.177-5.729-.743-7.567,0-.761.481-1.8.794-1.471a13.049,13.049,0,0,1-.06-5.031c.46,1.978.408-.683.337,2.027.226-2.557.649-3.135-.071-5.881.674.934.849-1.925.647-3.141l-.482,1.792a30.345,30.345,0,0,1,.019-3.775l.886.656c1.079-5.232-1.834-9.435-.029-13.419-.621-1.384-.437,2.841-1.162,1.6.12-2.407,1.392-4.914,1.395-5.668.49-3.3-1.295-3.076-.959-6.525-.316.441-1.16.858-1.459-1.72.117-2.409,1.327-2.96,1.58-1.44.027.578-.073.856-.18.832.115.778.25,1.8.593.846l-.316-.313c.322-1.195.288-4.508.807-3.73-.3-1.82-.52-.778-.683.57.458-3.089.015-4.827.322-8.005-.175.505-.546.971-.544.468.392-4.664-.6-2.053-.738-5.214.482-1.8,1.151.643.747-2.537.326-1.943.839-.411,1.1.361-.61-2.9.4-5.415.513-7.07l.255,1.526a13.632,13.632,0,0,1-.145-2.422l-.633.872c.111-.9.113-1.655.376-1.638-.414-.923-1.051.707-1.619-1.126.322-1.2-.344-3.639.5-4.052-.285,3.758.842-.415.978,2.765a8.132,8.132,0,0,1,.015-2.261c.093-.135.174.127.222.372a7.321,7.321,0,0,0,.19-1.5c-.005-.13-.009-.248-.013-.357-.011-.142-.021-.272-.032-.393a4.105,4.105,0,0,0-.111-.606c-.185-.677-.494-.953-.713-1.85-.863.032-1.877.059-3.124.078l-2.063.021-2.345.007c1.119-.2-2.044-.38-3.481-.337,3.552,0,1.7.334-1.559.487-5.65-.156-6.141.116-9.1.1l3.377.073c-1.144.2-3.97.174-7.908.237-.337-.156,3.577-.108,2.171-.176-4.374.352-9.882-.364-15.98-.127-2.826-.135-.273-.376-2.755-.468-6.834.26-7.4-.274-14.585-.06,2.07.269,2.433.2-2.626.465l11.809-.189-7.579.391c3.564,0,7.522-.169,9.656-.123-3.61.219-3.239.153-1.533.376-4.877-.4-9.668.235-15.306-.038l.172-.665c-8.475-.3-15.058.342-26.063.174l3.537.115c-1.476.264-6.794.037-10.359.144.332-.223-1.9-.3-3.417-.442.185.165-8.054-.015-9.054.429l-4.913-.293c-8.887-.12-10.142.634-18.684.558,2.574-.242-1.31-.4,4.414-.572a39.847,39.847,0,0,0-5.462.111c-1.665-.139-7.908.3-10.53.089a28.416,28.416,0,0,1-4.8.312c-.349-.045.012-.11.012-.11-.012.11-5.013.149-2.214.4-8.785-.694-24.555.051-32.2-.545-6.225.074-13.724.146-19.374.162.362-.067.019-.111,1.087-.088-7.795-.207-4.792.639-13.662.408-4.531-.359,4.709-.194,1.885-.331-1.23-.732-10.7.1-16.674-.327l1.445-.043c-4.561-.249-11.132.277-18.585.225,0,0,.362-.065.044-.111-5.1.374-14.749.5-21.92.6,2.231-.286,3.257-.152,1.9-.442-3.215.041.942.467-5.474.549-2.086-.157-6.716-.294-7.33-.6l6.052-.017c-3.1-.4-7.833.014-11.023-.056l.408-.176c-9.276.057-9.4.5-19.373.468l1.03.133c-5.447.438-4.567-.247-10,.08l-1.644-.445c-3.594.107-12.591.43-19.038.514,3.653-.33,11.2-.5,15.864-.695-3.564,0-12.11.033-13.965.253,1.436-.043,3.245-.152,4.663-.083q-6.556.525-17.224.514c.413-.282-1.424-.4-4.263-.461-1.419-.029-3.088-.043-4.851-.053l-7.55-.033c-.028.6-.055,1.185-.081,1.747-.021.286-.043.566-.063.837-.013.106-.027.211-.039.314-.015.087-.029.172-.043.256a4.054,4.054,0,0,1-.578,1.608c.754,5.313-.322,10.539-.2,16.729,1.587-2.2.045,1.806,1.675,1.427a5.266,5.266,0,0,1-.028,2.12l-.974,4.369c-.474,1.035-.358-1.371-.725-1.238-.125,3.156-.69,1.324-1.123,3.413.582-.428.834,1.1.611,2.9l.751-2.534c.867,4.411-1.367,3.813-.508,8.259l-.513-1.406c.3,2.282-.011,8.417,1.3,10.653-.188.4-.633.937-.751-.067-.2,5.453,1.393,12.138.587,16.376l-.4-.414c.115,1.017.749,1.771.348,3.044-.165-.066-.4-.41-.421.061a11.89,11.89,0,0,1,.465,4.05l-.448-1.152c-.522,5.318,1.091,8.162,1.364,12.622-1.172-.012-1.553,4.173-1.744,6.262l-.165-.073c-.145,6.193.971,10.52,1.432,16.255-1.274,3.56-.533,12.06-1.247,17.781.213-.875.914.142,1.031,1.16-.237,1.343.814,3.711-.261,3.5l.02-.478c-1.055,1.011-.774,3.771-.8,5.926l1.407.355c-2.046,5.636.753,14.766-1.08,17.842.352,1.359.348,3.044.7,4.393l-.755-.073a92.667,92.667,0,0,0-.107,10.307l-.54-.949c-.048,2.627,2.175,3.317,2.219,5.74l-1.126.729c.017,4.584-.971,9.223.049,13.752-.164-.074-.49-.209-.536-.951-.029,2.157-.762,8.345.783,7.562-1.006.054-.1,4.729.345,7.2l-.742-.385c.166.354.305.651.426.914q.048.1.092.191l.043.091.041.135.153.517a13.719,13.719,0,0,1,.441,1.96l2.942-.062,3.743-.055c.818.02,1.176.083,1.059.131a2.307,2.307,0,0,1-.535.053c-.151,0-.329.006-.54,0l-.819-.018,1.043.024.813.011c.5,0,.927,0,1.306-.009.757-.017,1.323-.055,1.926-.092,1.206-.074,2.556-.148,5.858-.063l-2.461.2a60.709,60.709,0,0,0,8.245-.317c3.525-.126,10.632.079,11.46.363a42.727,42.727,0,0,1,7.129-.323c.445.108-.757.174-1.363.207,9.372.214,13.935-.365,20.381-.057a2.736,2.736,0,0,0,1.088.188c-7.446-.008-13.442-.025-12.88-.048,0,.29,6.014.34,1.23.74,4.828-.219,13.082-.693,18.944-.557.285.028.562.056.775.1l-.608.033c1.354.029,2.564,0,3.706-.047,1.87.047,3.057.083,4.855.087.694.24,6.9.129,9.9.141-.249-.317,3.678-.266,0-.527a17.882,17.882,0,0,1-2.562.051c-.45.009-.981.014-1.278.033l.2-.028-7.452.021a62.877,62.877,0,0,1,8.16-.12c1.539-.2,3.232-.413,4.187-.511,4.1.442,12.012.681,13.114.953,9.156-.177,21.57-.117,27.327-.712a17.233,17.233,0,0,1,3.966.264c-1.5.06-3.292.051-4.1.136,5.2-.153,15.421-.06,16.664-.476,6.561.188-3.688.383,5.327.315l-1.216.127c17.734.664,28.831-1.061,48.492-.208a18.763,18.763,0,0,1-2.322-.146c22.417.376,46.194-.353,68.312.243a94.588,94.588,0,0,0,10.805-.347l1.363.34,6.56-.393c9.3-.287,16.11.835,27.888.291l-1.519-.229c4.231.043,13.4-.135,12.693.128a13.5,13.5,0,0,1,3.04-.119l.129.178,10.39-.3c8.056.128-1.259.707,10.5.741,4.37-.069,12.443-.518,10.8-.638a24.809,24.809,0,0,1-4.639-.289l4-.093c.725-.525,3.8-1.062-6.012-1.428l-6.836.321-2.2-.254,5.753-.016a48.516,48.516,0,0,0-7.648.118,16.254,16.254,0,0,0-2.866-.28l-6.712.5c-.813-.2,3.009-.407-1.493-.521-3.144.233,3.015.46-2.19.613-3.271-.238-2.315-.433-6.153-.229-.539-.135.273-.222,1.794-.281-3.417.162-9.042.068-10.805.347-3.408-.294-11.535.077-11.2-.42-1.074.119-6.018.39-9.156.41,5.734-.594-11.747-.035-10.231-.672-4.243.535-15.328.237-22.843.534a14.617,14.617,0,0,1,1.908-.1c-4.23-.045-5.459-.206-8.177-.307-.544.442-7.131.543-10.683.815-5.185-.426,3.149-.518,1.521-.927.26.358-9.01.357-7.246.655a33.953,33.953,0,0,1-5.459-.494c-.7.552-3.693.094-6.982.433-5.739-.272-1.477-.517-7.781-.349-3-.169,2.608-.365,2.608-.365m-149.932.954v-.006l3.095-.018-3.095.024m-12.6.005c1.535.012,3.445.015,5.466.012.442.109-.036.222-1.3.216a37.473,37.473,0,0,0-4.162-.229m26.652,2.2a14.758,14.758,0,0,1-2.936-.082l3.489-.038c.057-.012.177-.025.234-.039a3.721,3.721,0,0,1-.787.159" transform="translate(-260.828 -967.349)" fill="#fff"/>
</svg>
